<svg width="424" height="364" viewBox="0 0 424 364" fill="none" xmlns="http://www.w3.org/2000/svg">
<path fill-rule="evenodd" clip-rule="evenodd" d="M322.63 238.705H20.642C16.8016 238.705 13.6887 235.592 13.6887 231.752V18.5369C13.6887 14.6966 16.8016 11.5828 20.642 11.5828H322.63C326.469 11.5828 329.583 14.6966 329.583 18.5369V231.752C329.583 235.592 326.469 238.705 322.63 238.705Z" fill="#090E2B"/>
<path fill-rule="evenodd" clip-rule="evenodd" d="M309.844 228.025H7.85586C4.0155 228.025 0.902588 224.912 0.902588 221.072V7.85665C0.902588 4.01628 4.0155 0.902466 7.85586 0.902466H309.844C313.683 0.902466 316.797 4.01628 316.797 7.85665V221.072C316.797 224.912 313.683 228.025 309.844 228.025Z" fill="white"/>
<path fill-rule="evenodd" clip-rule="evenodd" d="M7.85583 0H309.844C314.182 0 317.699 3.51777 317.699 7.85673V221.072C317.699 225.41 314.182 228.927 309.844 228.927H7.85583C3.51698 228.927 0 225.41 0 221.072V7.85673C0 3.51777 3.51713 0 7.85583 0ZM309.844 1.80511H7.85583C4.51412 1.80511 1.80511 4.51464 1.80511 7.85673V221.072C1.80511 224.413 4.51394 227.122 7.85583 227.122H309.844C313.183 227.122 315.894 224.413 315.894 221.072V7.85673C315.894 4.51464 313.183 1.80511 309.844 1.80511Z" fill="#090E2B"/>
<path fill-rule="evenodd" clip-rule="evenodd" d="M185.679 111.935H59.5036C48.3237 111.935 39.2611 102.873 39.2611 91.6927C39.2611 80.5146 48.3237 71.452 59.5036 71.452H185.679C196.858 71.452 205.92 80.5146 205.92 91.6927C205.92 102.873 196.858 111.935 185.679 111.935Z" fill="#0053AD"/>
<path fill-rule="evenodd" clip-rule="evenodd" d="M257.042 111.378C245.863 111.378 236.8 102.316 236.8 91.1359C236.8 79.9578 245.863 70.8953 257.042 70.8953C268.221 70.8953 277.284 79.9578 277.284 91.1359C277.284 102.316 268.221 111.378 257.042 111.378Z" fill="#C7D2F2"/>
<path d="M297.66 16.5308C298.189 16.0021 299.046 16.0021 299.575 16.5308C300.087 17.043 300.103 17.8634 299.623 18.3949L299.575 18.4454L286.939 31.081C286.41 31.6099 285.553 31.6099 285.024 31.081C284.512 30.569 284.496 29.7486 284.976 29.217L285.024 29.1664L297.66 16.5308Z" fill="black"/>
<path d="M285.024 16.5308C285.536 16.0186 286.357 16.0026 286.888 16.4828L286.939 16.5308L299.574 29.1664C300.103 29.6953 300.103 30.5525 299.574 31.081C299.062 31.5934 298.242 31.6093 297.71 31.1292L297.66 31.081L285.024 18.4454C284.496 17.9167 284.496 17.0595 285.024 16.5308Z" fill="black"/>
<path d="M218.794 137.639C221.784 137.639 224.209 140.064 224.209 143.055C224.209 146.012 221.838 148.416 218.893 148.469L218.794 148.47H44.6764C41.6857 148.47 39.2611 146.046 39.2611 143.055C39.2611 140.097 41.6321 137.693 44.5769 137.64L44.6764 137.639H218.794Z" fill="#C7D2F2"/>
<path d="M144.123 169.83C147.114 169.83 149.539 172.255 149.539 175.246C149.539 178.203 147.168 180.607 144.223 180.66L144.123 180.661H44.6764C41.6857 180.661 39.2611 178.237 39.2611 175.246C39.2611 172.288 41.6321 169.885 44.5769 169.831L44.6764 169.83H144.123Z" fill="#C7D2F2"/>
<path fill-rule="evenodd" clip-rule="evenodd" d="M417.047 363.835H115.059C111.219 363.835 108.106 360.722 108.106 356.881V143.667C108.106 139.826 111.219 136.713 115.059 136.713H417.047C420.886 136.713 424 139.826 424 143.667V356.881C424 360.722 420.886 363.835 417.047 363.835Z" fill="#090E2B"/>
<path fill-rule="evenodd" clip-rule="evenodd" d="M404.261 353.154H102.273C98.4329 353.154 95.3199 350.042 95.3199 346.201V132.986C95.3199 129.146 98.4329 126.032 102.273 126.032H404.261C408.1 126.032 411.214 129.146 411.214 132.986V346.201C411.214 350.042 408.1 353.154 404.261 353.154Z" fill="white"/>
<path fill-rule="evenodd" clip-rule="evenodd" d="M102.273 125.13H404.261C408.599 125.13 412.116 128.647 412.116 132.986V346.201C412.116 350.54 408.599 354.057 404.261 354.057H102.273C97.9343 354.057 94.4174 350.54 94.4174 346.201V132.986C94.4174 128.647 97.9345 125.13 102.273 125.13ZM404.261 126.935H102.273C98.9315 126.935 96.2225 129.644 96.2225 132.986V346.201C96.2225 349.543 98.9313 352.252 102.273 352.252H404.261C407.601 352.252 410.311 349.543 410.311 346.201V132.986C410.311 129.644 407.601 126.935 404.261 126.935Z" fill="#090E2B"/>
<path fill-rule="evenodd" clip-rule="evenodd" d="M153.227 221.014C145.107 221.014 138.524 214.432 138.524 206.311C138.524 198.192 145.107 191.61 153.227 191.61C161.347 191.61 167.929 198.192 167.929 206.311C167.929 214.432 161.347 221.014 153.227 221.014Z" fill="#C7D2F2"/>
<path fill-rule="evenodd" clip-rule="evenodd" d="M153.227 268.957C145.107 268.957 138.524 262.374 138.524 254.254C138.524 246.135 145.107 239.552 153.227 239.552C161.347 239.552 167.929 246.135 167.929 254.254C167.929 262.374 161.347 268.957 153.227 268.957Z" fill="#C7D2F2"/>
<path fill-rule="evenodd" clip-rule="evenodd" d="M154.186 316.899C146.066 316.899 139.483 310.317 139.483 302.196C139.483 294.077 146.066 287.495 154.186 287.495C162.306 287.495 168.888 294.077 168.888 302.196C168.888 310.317 162.306 316.899 154.186 316.899Z" fill="#C7D2F2"/>
<path d="M392.077 141.661C392.606 141.132 393.463 141.132 393.992 141.661C394.504 142.173 394.52 142.993 394.04 143.525L393.992 143.575L381.356 156.211C380.828 156.74 379.97 156.74 379.442 156.211C378.93 155.699 378.914 154.878 379.394 154.347L379.442 154.296L392.077 141.661Z" fill="black"/>
<path d="M379.441 141.661C379.954 141.148 380.774 141.132 381.306 141.613L381.356 141.661L393.992 154.296C394.521 154.825 394.521 155.682 393.992 156.211C393.48 156.723 392.659 156.739 392.128 156.259L392.077 156.211L379.441 143.575C378.913 143.046 378.913 142.189 379.441 141.661Z" fill="black"/>
<path d="M360.726 200.879C363.716 200.879 366.141 203.303 366.141 206.294C366.141 209.252 363.77 211.655 360.825 211.709L360.726 211.709H186.608C183.618 211.709 181.193 209.285 181.193 206.294C181.193 203.336 183.564 200.933 186.509 200.879L186.608 200.879H360.726Z" fill="#C7D2F2"/>
<path d="M325.972 164.442C328.006 164.442 329.655 166.875 329.655 169.876C329.655 172.843 328.042 175.255 326.04 175.309L325.972 175.309H207.568C205.535 175.309 203.886 172.877 203.886 169.876C203.886 166.909 205.498 164.497 207.501 164.443L207.568 164.442H325.972Z" fill="#4196F0"/>
<path d="M360.726 248.821C363.716 248.821 366.141 251.246 366.141 254.236C366.141 257.194 363.77 259.598 360.825 259.651L360.726 259.652H186.608C183.618 259.652 181.193 257.227 181.193 254.236C181.193 251.279 183.564 248.875 186.509 248.822L186.608 248.821H360.726Z" fill="#C7D2F2"/>
<path d="M361.684 296.763C364.675 296.763 367.1 299.188 367.1 302.179C367.1 305.136 364.729 307.54 361.784 307.593L361.684 307.594H187.567C184.577 307.594 182.152 305.17 182.152 302.179C182.152 299.221 184.523 296.818 187.468 296.764L187.567 296.763H361.684Z" fill="#C7D2F2"/>
</svg>
