<svg width="490" height="388" viewBox="0 0 490 388" fill="none" xmlns="http://www.w3.org/2000/svg">
<path fill-rule="evenodd" clip-rule="evenodd" d="M400.667 330.847H70.7618C63.6435 330.847 57.8734 325.064 57.8734 317.93V108.018C57.8734 100.884 63.6435 95.1006 70.7618 95.1006H400.667C407.786 95.1006 413.554 100.884 413.554 108.018V317.93C413.554 325.064 407.786 330.847 400.667 330.847Z" fill="#008BF2"/>
<path fill-rule="evenodd" clip-rule="evenodd" d="M412.609 334.04H58.7451C50.0493 334.04 43 326.972 43 318.258V313.411H428.355V318.258C428.355 326.972 421.304 334.04 412.609 334.04Z" fill="#276DFF"/>
<path fill-rule="evenodd" clip-rule="evenodd" d="M67.4206 303.552H403.014V104.467H67.4206V303.552Z" fill="white"/>
<path fill-rule="evenodd" clip-rule="evenodd" d="M200.652 313.411L205.434 321.035H272.72L277.161 313.411H200.652Z" fill="#090E2B"/>
<path d="M200.823 241.717H113.714C111.422 241.717 109.565 240.317 109.565 238.591V237.177C109.565 235.452 111.422 234.052 113.714 234.052H200.823C203.113 234.052 204.971 235.452 204.971 237.177V238.591C204.971 240.317 203.113 241.717 200.823 241.717Z" fill="#C7D2F2"/>
<path fill-rule="evenodd" clip-rule="evenodd" d="M110.112 252.631C110.112 251.897 110.903 251.301 111.878 251.302L352.738 251.342C353.713 251.342 354.504 251.938 354.504 252.673C354.504 253.407 353.713 254.002 352.738 254.002L111.877 253.962C110.902 253.962 110.112 253.366 110.112 252.631Z" fill="#C7D2F2"/>
<path fill-rule="evenodd" clip-rule="evenodd" d="M110.112 262.892C110.112 262.158 110.902 261.562 111.877 261.562H238.704C239.679 261.562 240.47 262.158 240.47 262.892C240.47 263.627 239.679 264.222 238.704 264.222H111.877C110.902 264.222 110.112 263.627 110.112 262.892Z" fill="#C7D2F2"/>
<path d="M200.823 157.613H113.714C111.422 157.613 109.565 156.214 109.565 154.488V153.074C109.565 151.349 111.422 149.948 113.714 149.948H200.823C203.113 149.948 204.971 151.349 204.971 153.074V154.488C204.971 156.214 203.113 157.613 200.823 157.613Z" fill="#C7D2F2"/>
<path fill-rule="evenodd" clip-rule="evenodd" d="M110.112 168.527C110.112 167.793 110.903 167.198 111.879 167.198L312.952 167.28C313.926 167.281 314.717 167.877 314.717 168.611C314.715 169.346 313.926 169.941 312.949 169.941L111.876 169.858C110.901 169.858 110.111 169.262 110.112 168.527Z" fill="#C7D2F2"/>
<path fill-rule="evenodd" clip-rule="evenodd" d="M271.164 178.965C271.164 179.699 270.373 180.295 269.399 180.296L111.879 180.364C110.904 180.365 110.112 179.77 110.112 179.035C110.111 178.301 110.901 177.705 111.876 177.704L269.396 177.635C270.371 177.635 271.162 178.23 271.164 178.965Z" fill="#C7D2F2"/>
<path fill-rule="evenodd" clip-rule="evenodd" d="M110.112 189.404C110.112 188.669 110.902 188.074 111.877 188.074H238.704C239.679 188.074 240.47 188.669 240.47 189.404C240.47 190.138 239.679 190.734 238.704 190.734H111.877C110.902 190.734 110.112 190.138 110.112 189.404Z" fill="#C7D2F2"/>
<g opacity="0.5">
<path fill-rule="evenodd" clip-rule="evenodd" d="M389.103 71.3177C387.395 68.7004 385.716 64.7272 387.68 62.3889C388.841 61.0069 390.806 61.1165 392.215 62.1027C393.624 63.0889 394.606 64.7515 395.543 66.3638C394.039 62.6384 392.503 58.7691 392.396 54.6221C392.289 50.475 394.022 45.9534 397.258 44.6154C400.613 43.2278 404.186 45.5812 407.081 48.0617C413.263 53.3572 418.855 59.6652 423.658 66.7601C423.355 64.5332 423.051 62.2492 423.405 60.0329C423.759 57.8164 424.913 55.6461 426.682 54.9505C428.437 54.2605 430.334 55.1312 431.981 56.1385C437.65 59.6037 442.557 64.884 446.07 71.2996C445.549 71.2996 446.322 72.1645 445.801 72.1645L389.103 71.3177Z" fill="#F0F1FF"/>
</g>
<g opacity="0.5">
<path fill-rule="evenodd" clip-rule="evenodd" d="M150.041 54.1152C151.75 51.4979 153.429 47.5247 151.464 45.1864C150.303 43.8043 148.338 43.9139 146.93 44.9002C145.521 45.8864 144.539 47.549 143.601 49.1612C145.106 45.4359 146.642 41.5666 146.749 37.4196C146.855 33.2725 145.122 28.7509 141.886 27.4128C138.531 26.0253 134.959 28.3787 132.063 30.8592C125.882 36.1547 120.29 42.4627 115.487 49.5576C115.79 47.3307 116.094 45.0466 115.74 42.8304C115.386 40.6139 114.232 38.4436 112.462 37.748C110.707 37.058 108.811 37.9287 107.163 38.936C101.495 42.4012 96.5875 47.6815 93.0742 54.0971C93.5953 54.0971 92.8227 54.962 93.3438 54.962L150.041 54.1152Z" fill="#F0F1FF"/>
</g>
</svg>
